<svg width="656" height="610" viewBox="0 0 656 610" fill="none" xmlns="http://www.w3.org/2000/svg">
<g opacity="0.5">
<path d="M-12.3161 134.658V-9.15145L111.686 -81L235.688 -9.15145V134.658L111.686 206.506L-12.3161 134.658Z" stroke="#C9CAC6" stroke-miterlimit="10"/>
<path d="M514.832 134.658V-9.15145L390.83 -81L266.716 -9.15145V134.658L390.83 206.506L514.832 134.658Z" stroke="#C9CAC6" stroke-miterlimit="10"/>
<path d="M654.516 377.329V233.52L530.402 161.559L406.4 233.52V377.329L530.402 449.177L654.516 377.329Z" stroke="#C9CAC6" stroke-miterlimit="10"/>
<path d="M96.1157 377.329V233.52L-27.9982 161.559L-152 233.52V377.329L-27.9982 449.177L96.1157 377.329Z" stroke="#C9CAC6" stroke-miterlimit="10"/>
<path d="M-12.3161 619.888V476.078L111.686 404.23L235.688 476.078V619.888L111.686 691.736L-12.3161 619.888Z" stroke="#C9CAC6" stroke-miterlimit="10"/>
<path d="M514.832 619.888V476.078L390.83 404.23L266.716 476.078V619.888L390.83 691.736L514.832 619.888Z" stroke="#C9CAC6" stroke-miterlimit="10"/>
</g>
</svg>
