<svg width="287" height="308" viewBox="0 0 287 308" fill="none" xmlns="http://www.w3.org/2000/svg">
<g opacity="0.5">
<path d="M-13.3063 56.9693V-7.57581L42.3488 -39.8232L98.0039 -7.57581V56.9693L42.3488 89.2168L-13.3063 56.9693Z" stroke="#C9CAC6" stroke-miterlimit="10"/>
<path d="M223.291 56.9693V-7.57581L167.636 -39.8232L111.93 -7.57581V56.9693L167.636 89.2168L223.291 56.9693Z" stroke="#C9CAC6" stroke-miterlimit="10"/>
<path d="M285.985 165.886V101.341L230.279 69.0435L174.624 101.341V165.886L230.279 198.134L285.985 165.886Z" stroke="#C9CAC6" stroke-miterlimit="10"/>
<path d="M35.3605 165.886V101.341L-20.3449 69.0435L-76 101.341V165.886L-20.3449 198.134L35.3605 165.886Z" stroke="#C9CAC6" stroke-miterlimit="10"/>
<path d="M-13.3063 274.753V210.207L42.3488 177.96L98.0039 210.207V274.753L42.3488 307L-13.3063 274.753Z" stroke="#C9CAC6" stroke-miterlimit="10"/>
<path d="M223.291 274.753V210.207L167.636 177.96L111.93 210.207V274.753L167.636 307L223.291 274.753Z" stroke="#C9CAC6" stroke-miterlimit="10"/>
</g>
</svg>
